<svg xmlns="http://www.w3.org/2000/svg" viewBox="0 0 760 240" role="img" aria-label="键盘半音位置"><rect width="760" height="240" rx="12" fill="#f7f4ed"/><g font-family="Microsoft YaHei, sans-serif" fill="#344e46"><text x="40" y="29" font-size="17">相邻键 = 半音；相邻白键不一定 = 全音</text><rect x="42" y="48" width="81" height="144" fill="white" stroke="#9cafa3"/><text x="82" y="177" text-anchor="middle" font-size="18">C</text><rect x="125" y="48" width="81" height="144" fill="white" stroke="#9cafa3"/><text x="165" y="177" text-anchor="middle" font-size="18">D</text><rect x="208" y="48" width="81" height="144" fill="white" stroke="#9cafa3"/><text x="248" y="177" text-anchor="middle" font-size="18">E</text><rect x="291" y="48" width="81" height="144" fill="white" stroke="#9cafa3"/><text x="331" y="177" text-anchor="middle" font-size="18">F</text><rect x="374" y="48" width="81" height="144" fill="white" stroke="#9cafa3"/><text x="414" y="177" text-anchor="middle" font-size="18">G</text><rect x="457" y="48" width="81" height="144" fill="white" stroke="#9cafa3"/><text x="497" y="177" text-anchor="middle" font-size="18">A</text><rect x="540" y="48" width="81" height="144" fill="white" stroke="#9cafa3"/><text x="580" y="177" text-anchor="middle" font-size="18">B</text><rect x="623" y="48" width="81" height="144" fill="white" stroke="#9cafa3"/><text x="663" y="177" text-anchor="middle" font-size="18">C</text><rect x="103" y="48" width="40" height="88" rx="3" fill="#344e46"/><rect x="186" y="48" width="40" height="88" rx="3" fill="#344e46"/><rect x="352" y="48" width="40" height="88" rx="3" fill="#344e46"/><rect x="435" y="48" width="40" height="88" rx="3" fill="#344e46"/><rect x="518" y="48" width="40" height="88" rx="3" fill="#344e46"/><text x="40" y="221" font-size="15">E → F 与 B → C：中间没有黑键</text></g></svg>